<svg xmlns="http://www.w3.org/2000/svg" xmlns:xlink="http://www.w3.org/1999/xlink" width="500" zoomAndPan="magnify" viewBox="0 0 375 374.999991" height="500" preserveAspectRatio="xMidYMid meet" version="1.0"><defs><g/><clipPath id="b7f7f39f7a"><path d="M 131.472656 57.820312 L 246.972656 57.820312 L 246.972656 205.570312 L 131.472656 205.570312 Z M 131.472656 57.820312 " clip-rule="nonzero"/></clipPath><clipPath id="8e343e354c"><path d="M 132.207031 58.554688 L 246.207031 58.554688 L 246.207031 204.054688 L 132.207031 204.054688 Z M 132.207031 58.554688 " clip-rule="nonzero"/></clipPath></defs><g clip-path="url(#b7f7f39f7a)"><path fill="#00d1a1" d="M 187.902344 177.371094 L 187.902344 203.800781 C 187.902344 204.054688 187.839844 204.289062 187.710938 204.503906 C 187.582031 204.71875 187.40625 204.886719 187.183594 205.007812 C 186.960938 205.128906 186.726562 205.183594 186.472656 205.171875 C 186.222656 205.160156 185.988281 205.085938 185.78125 204.945312 L 136.675781 172.765625 C 135.875 172.242188 135.152344 171.628906 134.507812 170.925781 C 133.863281 170.222656 133.3125 169.449219 132.859375 168.609375 C 132.402344 167.769531 132.058594 166.886719 131.824219 165.960938 C 131.589844 165.035156 131.472656 164.09375 131.472656 163.136719 L 131.472656 99.886719 C 131.472656 98.929688 131.589844 97.988281 131.824219 97.0625 C 132.058594 96.136719 132.402344 95.253906 132.859375 94.414062 C 133.3125 93.574219 133.863281 92.804688 134.507812 92.101562 C 135.152344 91.398438 135.875 90.785156 136.675781 90.261719 L 185.78125 58.078125 C 185.988281 57.9375 186.222656 57.863281 186.472656 57.851562 C 186.726562 57.839844 186.960938 57.894531 187.183594 58.015625 C 187.40625 58.136719 187.582031 58.304688 187.710938 58.519531 C 187.839844 58.734375 187.902344 58.96875 187.902344 59.222656 L 187.902344 85.648438 C 182.046875 85.796875 176.371094 86.898438 170.878906 88.941406 C 163.847656 91.546875 159.695312 99.289062 161.007812 107.351562 L 161.089844 107.835938 L 163.363281 114.347656 C 162.089844 115.601562 160.914062 116.941406 159.832031 118.371094 C 158.753906 119.796875 157.785156 121.296875 156.925781 122.863281 C 156.0625 124.433594 155.320312 126.054688 154.699219 127.730469 C 154.074219 129.410156 153.574219 131.121094 153.199219 132.871094 C 152.824219 134.621094 152.582031 136.386719 152.464844 138.171875 C 152.347656 139.960938 152.359375 141.742188 152.503906 143.527344 C 152.648438 145.308594 152.917969 147.074219 153.320312 148.816406 C 153.722656 150.5625 154.246094 152.265625 154.894531 153.933594 C 155.542969 155.601562 156.3125 157.210938 157.195312 158.769531 C 158.078125 160.324219 159.070312 161.804688 160.171875 163.21875 C 161.269531 164.628906 162.46875 165.953125 163.761719 167.1875 C 165.054688 168.425781 166.429688 169.558594 167.890625 170.597656 C 169.347656 171.632812 170.875 172.554688 172.46875 173.371094 C 174.0625 174.183594 175.707031 174.875 177.398438 175.449219 C 179.09375 176.023438 180.824219 176.472656 182.582031 176.792969 C 184.34375 177.113281 186.117188 177.308594 187.902344 177.371094 Z M 203.558594 99.464844 C 199.355469 97.910156 195.015625 97.058594 190.535156 96.910156 C 190.25 96.910156 189.964844 96.882812 189.675781 96.882812 C 189.085938 96.882812 188.5 96.886719 187.914062 96.902344 C 183.398438 97.058594 179.027344 97.921875 174.796875 99.5 C 173 100.164062 171.828125 102.632812 172.074219 105.125 L 172.917969 107.542969 C 177.644531 105.207031 182.644531 103.953125 187.914062 103.777344 C 188.351562 103.757812 188.785156 103.738281 189.226562 103.738281 C 189.667969 103.738281 190.105469 103.757812 190.542969 103.777344 C 195.867188 103.957031 200.910156 105.234375 205.671875 107.613281 C 205.964844 106.945312 206.179688 106.253906 206.324219 105.539062 C 206.746094 102.90625 205.507812 100.183594 203.558594 99.464844 Z M 241.761719 90.261719 L 192.65625 58.078125 C 192.445312 57.9375 192.214844 57.863281 191.964844 57.855469 C 191.714844 57.84375 191.476562 57.898438 191.253906 58.019531 C 191.035156 58.136719 190.859375 58.304688 190.730469 58.519531 C 190.601562 58.738281 190.535156 58.96875 190.535156 59.222656 L 190.535156 85.648438 C 196.355469 85.796875 201.992188 86.882812 207.449219 88.898438 C 214.546875 91.515625 218.746094 99.273438 217.429688 107.351562 C 217.003906 109.957031 215.925781 112.28125 215.035156 114.304688 C 216.3125 115.558594 217.492188 116.902344 218.570312 118.328125 C 219.652344 119.753906 220.625 121.25 221.488281 122.820312 C 222.351562 124.386719 223.097656 126.011719 223.722656 127.6875 C 224.351562 129.367188 224.851562 131.078125 225.230469 132.828125 C 225.605469 134.578125 225.851562 136.347656 225.972656 138.132812 C 226.089844 139.921875 226.078125 141.707031 225.9375 143.492188 C 225.792969 145.273438 225.523438 147.039062 225.125 148.785156 C 224.726562 150.53125 224.203125 152.238281 223.554688 153.90625 C 222.90625 155.574219 222.140625 157.1875 221.257812 158.746094 C 220.371094 160.300781 219.378906 161.785156 218.28125 163.199219 C 217.179688 164.613281 215.984375 165.9375 214.691406 167.175781 C 213.398438 168.414062 212.019531 169.550781 210.5625 170.585938 C 209.101562 171.625 207.574219 172.550781 205.980469 173.363281 C 204.386719 174.179688 202.742188 174.871094 201.046875 175.445312 C 199.351562 176.019531 197.621094 176.46875 195.859375 176.792969 C 194.101562 177.113281 192.324219 177.308594 190.535156 177.371094 L 190.535156 203.800781 C 190.535156 204.054688 190.597656 204.289062 190.726562 204.503906 C 190.855469 204.71875 191.03125 204.890625 191.253906 205.007812 C 191.476562 205.128906 191.710938 205.183594 191.964844 205.171875 C 192.214844 205.160156 192.449219 205.085938 192.65625 204.945312 L 241.761719 172.765625 C 242.5625 172.242188 243.285156 171.628906 243.929688 170.925781 C 244.574219 170.222656 245.125 169.449219 245.578125 168.609375 C 246.035156 167.769531 246.378906 166.886719 246.613281 165.960938 C 246.847656 165.035156 246.960938 164.09375 246.960938 163.136719 L 246.960938 99.886719 C 246.960938 98.929688 246.847656 97.988281 246.613281 97.0625 C 246.378906 96.136719 246.035156 95.253906 245.578125 94.414062 C 245.125 93.574219 244.574219 92.804688 243.929688 92.101562 C 243.285156 91.398438 242.5625 90.785156 241.761719 90.261719 Z M 241.761719 90.261719 " fill-opacity="1" fill-rule="nonzero"/></g><g clip-path="url(#8e343e354c)"><path fill="#0f1116" d="M 188.035156 176.832031 L 188.035156 202.984375 C 188.035156 203.234375 187.972656 203.464844 187.84375 203.679688 C 187.71875 203.890625 187.542969 204.058594 187.324219 204.175781 C 187.105469 204.296875 186.871094 204.347656 186.621094 204.339844 C 186.371094 204.328125 186.144531 204.253906 185.933594 204.117188 L 137.351562 172.277344 C 136.5625 171.761719 135.847656 171.152344 135.210938 170.457031 C 134.570312 169.761719 134.027344 168.996094 133.578125 168.167969 C 133.128906 167.335938 132.789062 166.460938 132.554688 165.546875 C 132.324219 164.628906 132.207031 163.699219 132.207031 162.753906 L 132.207031 100.171875 C 132.207031 99.230469 132.324219 98.296875 132.554688 97.382812 C 132.789062 96.46875 133.128906 95.59375 133.578125 94.761719 C 134.027344 93.929688 134.570312 93.167969 135.210938 92.472656 C 135.847656 91.777344 136.5625 91.167969 137.351562 90.652344 L 185.933594 58.8125 C 186.144531 58.675781 186.371094 58.601562 186.621094 58.589844 C 186.871094 58.578125 187.105469 58.632812 187.324219 58.75 C 187.542969 58.867188 187.71875 59.035156 187.84375 59.25 C 187.972656 59.464844 188.035156 59.695312 188.035156 59.945312 L 188.035156 86.085938 C 182.242188 86.238281 176.628906 87.324219 171.195312 89.347656 C 164.234375 91.925781 160.128906 99.585938 161.429688 107.558594 L 161.507812 108.042969 L 163.757812 114.480469 C 162.496094 115.722656 161.332031 117.050781 160.265625 118.460938 C 159.199219 119.875 158.238281 121.355469 157.386719 122.90625 C 156.535156 124.460938 155.800781 126.066406 155.183594 127.722656 C 154.566406 129.382812 154.074219 131.078125 153.703125 132.808594 C 153.332031 134.539062 153.089844 136.289062 152.972656 138.054688 C 152.859375 139.820312 152.871094 141.585938 153.015625 143.351562 C 153.15625 145.113281 153.425781 146.859375 153.820312 148.585938 C 154.21875 150.308594 154.738281 151.996094 155.378906 153.648438 C 156.023438 155.296875 156.78125 156.890625 157.65625 158.429688 C 158.53125 159.96875 159.511719 161.433594 160.597656 162.832031 C 161.6875 164.226562 162.871094 165.535156 164.152344 166.757812 C 165.429688 167.984375 166.792969 169.105469 168.234375 170.132812 C 169.679688 171.15625 171.1875 172.070312 172.765625 172.875 C 174.34375 173.679688 175.96875 174.367188 177.644531 174.933594 C 179.320312 175.5 181.03125 175.945312 182.773438 176.261719 C 184.511719 176.582031 186.269531 176.769531 188.035156 176.832031 Z M 203.523438 99.757812 C 199.367188 98.21875 195.070312 97.375 190.640625 97.230469 C 190.355469 97.230469 190.074219 97.203125 189.789062 97.203125 C 189.207031 97.203125 188.625 97.210938 188.046875 97.222656 C 183.582031 97.375 179.253906 98.230469 175.070312 99.792969 C 173.289062 100.453125 172.132812 102.894531 172.375 105.359375 L 173.210938 107.75 C 177.886719 105.441406 182.832031 104.199219 188.046875 104.023438 C 188.480469 104.007812 188.910156 103.984375 189.347656 103.984375 C 189.78125 103.984375 190.214844 104.007812 190.648438 104.023438 C 195.914062 104.203125 200.902344 105.46875 205.617188 107.820312 C 205.902344 107.160156 206.121094 106.476562 206.261719 105.769531 C 206.679688 103.164062 205.453125 100.46875 203.523438 99.757812 Z M 241.320312 90.652344 L 192.738281 58.8125 C 192.53125 58.675781 192.304688 58.601562 192.054688 58.589844 C 191.804688 58.582031 191.570312 58.632812 191.351562 58.753906 C 191.132812 58.871094 190.960938 59.035156 190.832031 59.25 C 190.707031 59.464844 190.640625 59.695312 190.640625 59.945312 L 190.640625 86.089844 C 196.398438 86.238281 201.976562 87.308594 207.375 89.304688 C 214.394531 91.894531 218.550781 99.566406 217.25 107.558594 C 216.828125 110.140625 215.761719 112.4375 214.878906 114.441406 C 216.140625 115.683594 217.308594 117.007812 218.378906 118.417969 C 219.449219 119.832031 220.410156 121.3125 221.265625 122.863281 C 222.117188 124.417969 222.855469 126.023438 223.476562 127.679688 C 224.09375 129.339844 224.589844 131.035156 224.964844 132.765625 C 225.335938 134.5 225.582031 136.246094 225.699219 138.015625 C 225.816406 139.78125 225.804688 141.550781 225.664062 143.316406 C 225.523438 145.082031 225.257812 146.828125 224.859375 148.554688 C 224.464844 150.28125 223.949219 151.96875 223.308594 153.621094 C 222.664062 155.269531 221.90625 156.867188 221.035156 158.40625 C 220.160156 159.945312 219.179688 161.414062 218.089844 162.8125 C 217 164.210938 215.816406 165.523438 214.539062 166.746094 C 213.257812 167.972656 211.894531 169.097656 210.453125 170.121094 C 209.007812 171.148438 207.5 172.0625 205.921875 172.871094 C 204.34375 173.675781 202.714844 174.363281 201.039062 174.929688 C 199.359375 175.5 197.652344 175.941406 195.910156 176.261719 C 194.167969 176.582031 192.410156 176.769531 190.640625 176.832031 L 190.640625 202.984375 C 190.640625 203.230469 190.703125 203.464844 190.832031 203.679688 C 190.957031 203.890625 191.132812 204.058594 191.351562 204.175781 C 191.570312 204.296875 191.804688 204.347656 192.054688 204.339844 C 192.304688 204.328125 192.53125 204.253906 192.738281 204.117188 L 241.320312 172.277344 C 242.113281 171.761719 242.828125 171.152344 243.464844 170.457031 C 244.105469 169.761719 244.648438 168.996094 245.097656 168.167969 C 245.546875 167.335938 245.886719 166.460938 246.117188 165.546875 C 246.351562 164.628906 246.464844 163.699219 246.464844 162.753906 L 246.464844 100.171875 C 246.464844 99.230469 246.351562 98.296875 246.117188 97.382812 C 245.886719 96.46875 245.546875 95.59375 245.097656 94.761719 C 244.648438 93.929688 244.105469 93.167969 243.464844 92.472656 C 242.828125 91.777344 242.113281 91.167969 241.320312 90.652344 Z M 241.320312 90.652344 " fill-opacity="1" fill-rule="nonzero"/></g><g fill="#000000" fill-opacity="1"><g transform="translate(158.141038, 151.577503)"><g><path d="M 17.890625 0 L 15.609375 -2.28125 L 13.3125 0 L 5.875 0 L 2.359375 -3.515625 L 2.359375 -23.890625 L 9.015625 -23.890625 L 9.015625 -6.5625 L 9.796875 -5.765625 L 11.46875 -5.765625 L 12.25 -6.5625 L 12.25 -23.890625 L 18.90625 -23.890625 L 18.90625 -6.5625 L 19.703125 -5.765625 L 21.40625 -5.765625 L 22.1875 -6.5625 L 22.1875 -23.890625 L 28.84375 -23.890625 L 28.84375 -3.515625 L 25.328125 0 Z M 17.890625 0 "/></g></g></g><g fill="#000000" fill-opacity="1"><g transform="translate(189.341933, 151.577503)"><g><path d="M 12.25 0 L 12.25 -17.65625 L 11.78125 -18.125 L 9.484375 -18.125 L 9.015625 -17.65625 L 9.015625 0 L 2.359375 0 L 2.359375 -20.6875 L 5.5625 -23.890625 L 13.625 -23.890625 L 15.609375 -21.921875 L 17.578125 -23.890625 L 25.609375 -23.890625 L 28.84375 -20.6875 L 28.84375 0 L 22.1875 0 L 22.1875 -17.65625 L 21.71875 -18.125 L 19.421875 -18.125 L 18.90625 -17.65625 L 18.90625 0 Z M 12.25 0 "/></g></g></g><g fill="#0f1116" fill-opacity="1"><g transform="translate(61.707444, 248.519031)"><g><path d="M 20.75 0 L 18.09375 -2.65625 L 15.453125 0 L 6.8125 0 L 2.734375 -4.078125 L 2.734375 -27.734375 L 10.453125 -27.734375 L 10.453125 -7.609375 L 11.375 -6.6875 L 13.3125 -6.6875 L 14.21875 -7.609375 L 14.21875 -27.734375 L 21.9375 -27.734375 L 21.9375 -7.609375 L 22.859375 -6.6875 L 24.828125 -6.6875 L 25.75 -7.609375 L 25.75 -27.734375 L 33.46875 -27.734375 L 33.46875 -4.078125 L 29.390625 0 Z M 20.75 0 "/></g></g></g><g fill="#0f1116" fill-opacity="1"><g transform="translate(97.899679, 248.519031)"><g><path d="M 6.015625 0 L 2.296875 -3.765625 L 2.296875 -24 L 6.015625 -27.734375 L 23.046875 -27.734375 L 26.78125 -24 L 26.78125 -3.765625 L 23.046875 0 Z M 10.015625 -7.25 L 10.578125 -6.6875 L 18.5 -6.6875 L 19.046875 -7.25 L 19.046875 -20.484375 L 18.5 -21.03125 L 10.578125 -21.03125 L 10.015625 -20.484375 Z M 10.015625 -7.25 "/></g></g></g><g fill="#0f1116" fill-opacity="1"><g transform="translate(126.96434, 248.519031)"><g><path d="M 2.734375 0 L 2.734375 -27.734375 L 22.21875 -27.734375 L 27.921875 -22.015625 L 27.921875 -5.75 L 22.21875 0 Z M 10.453125 -6.6875 L 18.34375 -6.6875 L 20.203125 -8.5625 L 20.203125 -19.203125 L 18.34375 -21.03125 L 10.453125 -21.03125 Z M 10.453125 -6.6875 "/></g></g></g><g fill="#0f1116" fill-opacity="1"><g transform="translate(156.820955, 248.519031)"><g/></g></g><g fill="#0f1116" fill-opacity="1"><g transform="translate(167.076738, 248.519031)"><g><path d="M 14.21875 0 L 14.21875 -20.484375 L 13.671875 -21.03125 L 11.015625 -21.03125 L 10.453125 -20.484375 L 10.453125 0 L 2.734375 0 L 2.734375 -24 L 6.453125 -27.734375 L 15.796875 -27.734375 L 18.09375 -25.421875 L 20.40625 -27.734375 L 29.703125 -27.734375 L 33.46875 -24 L 33.46875 0 L 25.75 0 L 25.75 -20.484375 L 25.1875 -21.03125 L 22.53125 -21.03125 L 21.9375 -20.484375 L 21.9375 0 Z M 14.21875 0 "/></g></g></g><g fill="#0f1116" fill-opacity="1"><g transform="translate(203.268973, 248.519031)"><g><path d="M 2.734375 0 L 2.734375 -24 L 6.453125 -27.734375 L 23.484375 -27.734375 L 27.25 -24 L 27.25 0 L 19.53125 0 L 19.53125 -7.015625 L 10.453125 -7.015625 L 10.453125 0 Z M 10.453125 -13.703125 L 19.53125 -13.703125 L 19.53125 -20.484375 L 18.9375 -21.03125 L 11.015625 -21.03125 L 10.453125 -20.484375 Z M 10.453125 -13.703125 "/></g></g></g><g fill="#0f1116" fill-opacity="1"><g transform="translate(233.204781, 248.519031)"><g><path d="M 8.515625 0 L 8.515625 -21.03125 L 0.828125 -21.03125 L 0.828125 -27.734375 L 23.890625 -27.734375 L 23.890625 -21.03125 L 16.234375 -21.03125 L 16.234375 0 Z M 8.515625 0 "/></g></g></g><g fill="#0f1116" fill-opacity="1"><g transform="translate(257.953303, 248.519031)"><g><path d="M 6.015625 0 L 2.296875 -3.765625 L 2.296875 -24 L 6.015625 -27.734375 L 23.046875 -27.734375 L 26.78125 -24 L 26.78125 -17.90625 L 19.046875 -17.90625 L 19.046875 -20.484375 L 18.5 -21.03125 L 10.578125 -21.03125 L 10.015625 -20.484375 L 10.015625 -7.25 L 10.578125 -6.6875 L 18.5 -6.6875 L 19.046875 -7.25 L 19.046875 -9.828125 L 26.78125 -9.828125 L 26.78125 -3.765625 L 23.046875 0 Z M 6.015625 0 "/></g></g></g><g fill="#0f1116" fill-opacity="1"><g transform="translate(287.017976, 248.519031)"><g><path d="M 19.53125 0 L 19.53125 -10.53125 L 10.453125 -10.53125 L 10.453125 0 L 2.734375 0 L 2.734375 -27.734375 L 10.453125 -27.734375 L 10.453125 -17.1875 L 19.53125 -17.1875 L 19.53125 -27.734375 L 27.25 -27.734375 L 27.25 0 Z M 19.53125 0 "/></g></g></g><g fill="#4a5568" fill-opacity="1"><g transform="translate(98.135359, 270.35799)"><g><path d="M 8.21875 0 C 8.957031 0 9.585938 -0.257812 10.109375 -0.78125 C 10.628906 -1.300781 10.890625 -1.929688 10.890625 -2.671875 L 9.5625 -2.671875 C 9.5625 -2.296875 9.425781 -1.976562 9.15625 -1.71875 C 8.894531 -1.46875 8.582031 -1.34375 8.21875 -1.34375 L 3.546875 -1.34375 C 3.179688 -1.34375 2.867188 -1.46875 2.609375 -1.71875 C 2.347656 -1.976562 2.21875 -2.296875 2.21875 -2.671875 L 2.21875 -5.734375 C 2.21875 -6.097656 2.347656 -6.410156 2.609375 -6.671875 C 2.867188 -6.941406 3.179688 -7.078125 3.546875 -7.078125 L 8.21875 -7.078125 C 8.582031 -7.078125 8.894531 -6.941406 9.15625 -6.671875 C 9.425781 -6.410156 9.5625 -6.097656 9.5625 -5.734375 L 10.890625 -5.734375 C 10.890625 -6.472656 10.628906 -7.101562 10.109375 -7.625 C 9.585938 -8.144531 8.957031 -8.40625 8.21875 -8.40625 L 3.546875 -8.40625 C 2.804688 -8.40625 2.175781 -8.144531 1.65625 -7.625 C 1.132812 -7.101562 0.875 -6.472656 0.875 -5.734375 L 0.875 -2.671875 C 0.875 -1.929688 1.132812 -1.300781 1.65625 -0.78125 C 2.175781 -0.257812 2.804688 0 3.546875 0 Z M 8.21875 0 "/></g></g><g transform="translate(109.906843, 270.35799)"><g><path d="M 11.1875 0 L 9.84375 0 L 9.84375 -2.375 C 9.84375 -2.550781 9.773438 -2.703125 9.640625 -2.828125 C 9.515625 -2.960938 9.363281 -3.03125 9.1875 -3.03125 L 2.515625 -3.03125 L 2.515625 0 L 1.171875 0 L 1.171875 -8.40625 L 9.1875 -8.40625 C 9.738281 -8.40625 10.207031 -8.207031 10.59375 -7.8125 C 10.988281 -7.425781 11.1875 -6.957031 11.1875 -6.40625 L 11.1875 -5.046875 C 11.1875 -4.523438 11.015625 -4.078125 10.671875 -3.703125 C 11.015625 -3.328125 11.1875 -2.882812 11.1875 -2.375 Z M 9.1875 -4.375 C 9.363281 -4.375 9.515625 -4.4375 9.640625 -4.5625 C 9.773438 -4.695312 9.84375 -4.859375 9.84375 -5.046875 L 9.84375 -6.40625 C 9.84375 -6.59375 9.773438 -6.75 9.640625 -6.875 C 9.515625 -7.007812 9.363281 -7.078125 9.1875 -7.078125 L 2.515625 -7.078125 L 2.515625 -4.375 Z M 9.1875 -4.375 "/></g></g><g transform="translate(121.971295, 270.35799)"><g><path d="M 8.21875 0 C 8.957031 0 9.585938 -0.257812 10.109375 -0.78125 C 10.628906 -1.300781 10.890625 -1.929688 10.890625 -2.671875 L 10.890625 -5.734375 C 10.890625 -6.472656 10.628906 -7.101562 10.109375 -7.625 C 9.585938 -8.144531 8.957031 -8.40625 8.21875 -8.40625 L 3.546875 -8.40625 C 2.804688 -8.40625 2.175781 -8.144531 1.65625 -7.625 C 1.132812 -7.101562 0.875 -6.472656 0.875 -5.734375 L 0.875 -2.671875 C 0.875 -1.929688 1.132812 -1.300781 1.65625 -0.78125 C 2.175781 -0.257812 2.804688 0 3.546875 0 Z M 8.21875 -1.34375 L 3.546875 -1.34375 C 3.179688 -1.34375 2.867188 -1.46875 2.609375 -1.71875 C 2.347656 -1.976562 2.21875 -2.296875 2.21875 -2.671875 L 2.21875 -5.734375 C 2.21875 -6.097656 2.347656 -6.410156 2.609375 -6.671875 C 2.867188 -6.941406 3.179688 -7.078125 3.546875 -7.078125 L 8.21875 -7.078125 C 8.582031 -7.078125 8.894531 -6.941406 9.15625 -6.671875 C 9.425781 -6.410156 9.5625 -6.097656 9.5625 -5.734375 L 9.5625 -2.671875 C 9.5625 -2.296875 9.425781 -1.976562 9.15625 -1.71875 C 8.894531 -1.46875 8.582031 -1.34375 8.21875 -1.34375 Z M 8.21875 -1.34375 "/></g></g><g transform="translate(133.742779, 270.35799)"><g><path d="M 8.890625 0 L 2.890625 0 C 2.328125 0 1.847656 -0.191406 1.453125 -0.578125 C 1.066406 -0.972656 0.875 -1.445312 0.875 -2 L 2.21875 -2 C 2.21875 -1.820312 2.28125 -1.664062 2.40625 -1.53125 C 2.539062 -1.40625 2.703125 -1.34375 2.890625 -1.34375 L 8.890625 -1.34375 C 9.078125 -1.34375 9.234375 -1.40625 9.359375 -1.53125 C 9.492188 -1.664062 9.5625 -1.820312 9.5625 -2 L 9.5625 -2.859375 C 9.5625 -3.046875 9.492188 -3.203125 9.359375 -3.328125 C 9.234375 -3.460938 9.078125 -3.53125 8.890625 -3.53125 L 2.890625 -3.53125 C 2.328125 -3.53125 1.847656 -3.726562 1.453125 -4.125 C 1.066406 -4.519531 0.875 -4.988281 0.875 -5.53125 L 0.875 -6.40625 C 0.875 -6.957031 1.066406 -7.425781 1.453125 -7.8125 C 1.847656 -8.207031 2.328125 -8.40625 2.890625 -8.40625 L 8.890625 -8.40625 C 9.441406 -8.40625 9.910156 -8.207031 10.296875 -7.8125 C 10.691406 -7.425781 10.890625 -6.957031 10.890625 -6.40625 L 9.5625 -6.40625 C 9.5625 -6.59375 9.492188 -6.75 9.359375 -6.875 C 9.234375 -7 9.078125 -7.0625 8.890625 -7.0625 L 2.890625 -7.0625 C 2.703125 -7.0625 2.539062 -7 2.40625 -6.875 C 2.28125 -6.75 2.21875 -6.59375 2.21875 -6.40625 L 2.21875 -5.53125 C 2.21875 -5.351562 2.28125 -5.195312 2.40625 -5.0625 C 2.539062 -4.9375 2.703125 -4.875 2.890625 -4.875 L 8.890625 -4.875 C 9.441406 -4.875 9.910156 -4.675781 10.296875 -4.28125 C 10.691406 -3.894531 10.890625 -3.421875 10.890625 -2.859375 L 10.890625 -2 C 10.890625 -1.445312 10.691406 -0.972656 10.296875 -0.578125 C 9.910156 -0.191406 9.441406 0 8.890625 0 Z M 8.890625 0 "/></g></g><g transform="translate(145.514262, 270.35799)"><g><path d="M 8.890625 0 L 2.890625 0 C 2.328125 0 1.847656 -0.191406 1.453125 -0.578125 C 1.066406 -0.972656 0.875 -1.445312 0.875 -2 L 2.21875 -2 C 2.21875 -1.820312 2.28125 -1.664062 2.40625 -1.53125 C 2.539062 -1.40625 2.703125 -1.34375 2.890625 -1.34375 L 8.890625 -1.34375 C 9.078125 -1.34375 9.234375 -1.40625 9.359375 -1.53125 C 9.492188 -1.664062 9.5625 -1.820312 9.5625 -2 L 9.5625 -2.859375 C 9.5625 -3.046875 9.492188 -3.203125 9.359375 -3.328125 C 9.234375 -3.460938 9.078125 -3.53125 8.890625 -3.53125 L 2.890625 -3.53125 C 2.328125 -3.53125 1.847656 -3.726562 1.453125 -4.125 C 1.066406 -4.519531 0.875 -4.988281 0.875 -5.53125 L 0.875 -6.40625 C 0.875 -6.957031 1.066406 -7.425781 1.453125 -7.8125 C 1.847656 -8.207031 2.328125 -8.40625 2.890625 -8.40625 L 8.890625 -8.40625 C 9.441406 -8.40625 9.910156 -8.207031 10.296875 -7.8125 C 10.691406 -7.425781 10.890625 -6.957031 10.890625 -6.40625 L 9.5625 -6.40625 C 9.5625 -6.59375 9.492188 -6.75 9.359375 -6.875 C 9.234375 -7 9.078125 -7.0625 8.890625 -7.0625 L 2.890625 -7.0625 C 2.703125 -7.0625 2.539062 -7 2.40625 -6.875 C 2.28125 -6.75 2.21875 -6.59375 2.21875 -6.40625 L 2.21875 -5.53125 C 2.21875 -5.351562 2.28125 -5.195312 2.40625 -5.0625 C 2.539062 -4.9375 2.703125 -4.875 2.890625 -4.875 L 8.890625 -4.875 C 9.441406 -4.875 9.910156 -4.675781 10.296875 -4.28125 C 10.691406 -3.894531 10.890625 -3.421875 10.890625 -2.859375 L 10.890625 -2 C 10.890625 -1.445312 10.691406 -0.972656 10.296875 -0.578125 C 9.910156 -0.191406 9.441406 0 8.890625 0 Z M 8.890625 0 "/></g></g><g transform="translate(157.285746, 270.35799)"><g><path d="M 2.515625 0 L 1.171875 0 L 1.171875 -8.40625 L 10.515625 -8.40625 L 10.515625 -7.078125 L 2.515625 -7.078125 L 2.515625 -4.875 L 9.5625 -4.875 L 9.5625 -3.53125 L 2.515625 -3.53125 Z M 2.515625 0 "/></g></g><g transform="translate(168.682229, 270.35799)"><g><path d="M 2.515625 0 L 2.515625 -8.40625 L 1.171875 -8.40625 L 1.171875 0 Z M 2.515625 0 "/></g></g><g transform="translate(172.361917, 270.35799)"><g><path d="M 5.3125 0 L 3.984375 0 L 3.984375 -7.078125 L 0.171875 -7.078125 L 0.171875 -8.40625 L 9.125 -8.40625 L 9.125 -7.078125 L 5.3125 -7.078125 Z M 5.3125 0 "/></g></g><g transform="translate(181.660744, 270.35799)"><g/></g><g transform="translate(184.637307, 270.35799)"><g><path d="M 2.515625 0 L 1.171875 0 L 1.171875 -8.40625 L 9.1875 -8.40625 C 9.738281 -8.40625 10.207031 -8.207031 10.59375 -7.8125 C 10.988281 -7.425781 11.1875 -6.957031 11.1875 -6.40625 L 11.1875 -5.046875 C 11.1875 -4.484375 10.988281 -4.003906 10.59375 -3.609375 C 10.207031 -3.222656 9.738281 -3.03125 9.1875 -3.03125 L 2.515625 -3.03125 Z M 9.1875 -4.375 C 9.363281 -4.375 9.515625 -4.4375 9.640625 -4.5625 C 9.773438 -4.695312 9.84375 -4.859375 9.84375 -5.046875 L 9.84375 -6.40625 C 9.84375 -6.59375 9.773438 -6.75 9.640625 -6.875 C 9.515625 -7.007812 9.363281 -7.078125 9.1875 -7.078125 L 2.515625 -7.078125 L 2.515625 -4.375 Z M 9.1875 -4.375 "/></g></g><g transform="translate(196.701759, 270.35799)"><g><path d="M 8.859375 0 L 8.859375 -1.34375 L 2.515625 -1.34375 L 2.515625 -8.40625 L 1.171875 -8.40625 L 1.171875 0 Z M 8.859375 0 "/></g></g><g transform="translate(205.977149, 270.35799)"><g><path d="M 12.25 0 L 10.640625 0 L 9.40625 -1.828125 L 3.03125 -1.828125 L 1.78125 0 L 0.171875 0 L 5.859375 -8.40625 L 6.5625 -8.40625 Z M 8.5 -3.15625 L 6.21875 -6.546875 L 3.921875 -3.15625 Z M 8.5 -3.15625 "/></g></g><g transform="translate(218.404882, 270.35799)"><g><path d="M 5.3125 0 L 3.984375 0 L 3.984375 -7.078125 L 0.171875 -7.078125 L 0.171875 -8.40625 L 9.125 -8.40625 L 9.125 -7.078125 L 5.3125 -7.078125 Z M 5.3125 0 "/></g></g><g transform="translate(227.70371, 270.35799)"><g><path d="M 2.515625 0 L 1.171875 0 L 1.171875 -8.40625 L 10.515625 -8.40625 L 10.515625 -7.078125 L 2.515625 -7.078125 L 2.515625 -4.875 L 9.5625 -4.875 L 9.5625 -3.53125 L 2.515625 -3.53125 Z M 2.515625 0 "/></g></g><g transform="translate(239.100194, 270.35799)"><g><path d="M 8.21875 0 C 8.957031 0 9.585938 -0.257812 10.109375 -0.78125 C 10.628906 -1.300781 10.890625 -1.929688 10.890625 -2.671875 L 10.890625 -5.734375 C 10.890625 -6.472656 10.628906 -7.101562 10.109375 -7.625 C 9.585938 -8.144531 8.957031 -8.40625 8.21875 -8.40625 L 3.546875 -8.40625 C 2.804688 -8.40625 2.175781 -8.144531 1.65625 -7.625 C 1.132812 -7.101562 0.875 -6.472656 0.875 -5.734375 L 0.875 -2.671875 C 0.875 -1.929688 1.132812 -1.300781 1.65625 -0.78125 C 2.175781 -0.257812 2.804688 0 3.546875 0 Z M 8.21875 -1.34375 L 3.546875 -1.34375 C 3.179688 -1.34375 2.867188 -1.46875 2.609375 -1.71875 C 2.347656 -1.976562 2.21875 -2.296875 2.21875 -2.671875 L 2.21875 -5.734375 C 2.21875 -6.097656 2.347656 -6.410156 2.609375 -6.671875 C 2.867188 -6.941406 3.179688 -7.078125 3.546875 -7.078125 L 8.21875 -7.078125 C 8.582031 -7.078125 8.894531 -6.941406 9.15625 -6.671875 C 9.425781 -6.410156 9.5625 -6.097656 9.5625 -5.734375 L 9.5625 -2.671875 C 9.5625 -2.296875 9.425781 -1.976562 9.15625 -1.71875 C 8.894531 -1.46875 8.582031 -1.34375 8.21875 -1.34375 Z M 8.21875 -1.34375 "/></g></g><g transform="translate(250.871677, 270.35799)"><g><path d="M 11.1875 0 L 9.84375 0 L 9.84375 -2.375 C 9.84375 -2.550781 9.773438 -2.703125 9.640625 -2.828125 C 9.515625 -2.960938 9.363281 -3.03125 9.1875 -3.03125 L 2.515625 -3.03125 L 2.515625 0 L 1.171875 0 L 1.171875 -8.40625 L 9.1875 -8.40625 C 9.738281 -8.40625 10.207031 -8.207031 10.59375 -7.8125 C 10.988281 -7.425781 11.1875 -6.957031 11.1875 -6.40625 L 11.1875 -5.046875 C 11.1875 -4.523438 11.015625 -4.078125 10.671875 -3.703125 C 11.015625 -3.328125 11.1875 -2.882812 11.1875 -2.375 Z M 9.1875 -4.375 C 9.363281 -4.375 9.515625 -4.4375 9.640625 -4.5625 C 9.773438 -4.695312 9.84375 -4.859375 9.84375 -5.046875 L 9.84375 -6.40625 C 9.84375 -6.59375 9.773438 -6.75 9.640625 -6.875 C 9.515625 -7.007812 9.363281 -7.078125 9.1875 -7.078125 L 2.515625 -7.078125 L 2.515625 -4.375 Z M 9.1875 -4.375 "/></g></g><g transform="translate(262.936129, 270.35799)"><g><path d="M 12.734375 0 L 11.390625 0 L 11.390625 -5.671875 L 7.296875 0 L 6.609375 0 L 2.515625 -5.671875 L 2.515625 0 L 1.171875 0 L 1.171875 -8.40625 L 2.1875 -8.40625 L 6.953125 -1.8125 L 11.71875 -8.40625 L 12.734375 -8.40625 Z M 12.734375 0 "/></g></g></g></svg>