<svg xmlns="http://www.w3.org/2000/svg" xmlns:xlink="http://www.w3.org/1999/xlink" width="500" zoomAndPan="magnify" viewBox="0 0 375 374.999991" height="500" preserveAspectRatio="xMidYMid meet" version="1.0"><defs><g/></defs><g fill="#ffffff" fill-opacity="1"><g transform="translate(26.37305, 201.374987)"><g><path d="M 26.203125 0 L 22.84375 -3.34375 L 19.5 0 L 8.59375 0 L 3.453125 -5.15625 L 3.453125 -35 L 13.203125 -35 L 13.203125 -9.59375 L 14.34375 -8.453125 L 16.796875 -8.453125 L 17.953125 -9.59375 L 17.953125 -35 L 27.703125 -35 L 27.703125 -9.59375 L 28.84375 -8.453125 L 31.34375 -8.453125 L 32.5 -9.59375 L 32.5 -35 L 42.25 -35 L 42.25 -5.15625 L 37.09375 0 Z M 26.203125 0 "/></g></g></g><g fill="#ffffff" fill-opacity="1"><g transform="translate(72.065975, 201.374987)"><g><path d="M 7.59375 0 L 2.90625 -4.75 L 2.90625 -30.296875 L 7.59375 -35 L 29.09375 -35 L 33.796875 -30.296875 L 33.796875 -4.75 L 29.09375 0 Z M 12.65625 -9.15625 L 13.34375 -8.453125 L 23.34375 -8.453125 L 24.046875 -9.15625 L 24.046875 -25.84375 L 23.34375 -26.546875 L 13.34375 -26.546875 L 12.65625 -25.84375 Z M 12.65625 -9.15625 "/></g></g></g><g fill="#ffffff" fill-opacity="1"><g transform="translate(108.760297, 201.374987)"><g><path d="M 3.453125 0 L 3.453125 -35 L 28.046875 -35 L 35.25 -27.796875 L 35.25 -7.25 L 28.046875 0 Z M 13.203125 -8.453125 L 23.15625 -8.453125 L 25.5 -10.796875 L 25.5 -24.25 L 23.15625 -26.546875 L 13.203125 -26.546875 Z M 13.203125 -8.453125 "/></g></g></g><g fill="#ffffff" fill-opacity="1"><g transform="translate(146.454466, 201.374987)"><g/></g></g><g fill="#ffffff" fill-opacity="1"><g transform="translate(159.402459, 201.374987)"><g><path d="M 17.953125 0 L 17.953125 -25.84375 L 17.25 -26.546875 L 13.90625 -26.546875 L 13.203125 -25.84375 L 13.203125 0 L 3.453125 0 L 3.453125 -30.296875 L 8.15625 -35 L 19.953125 -35 L 22.84375 -32.09375 L 25.75 -35 L 37.5 -35 L 42.25 -30.296875 L 42.25 0 L 32.5 0 L 32.5 -25.84375 L 31.796875 -26.546875 L 28.453125 -26.546875 L 27.703125 -25.84375 L 27.703125 0 Z M 17.953125 0 "/></g></g></g><g fill="#ffffff" fill-opacity="1"><g transform="translate(205.095384, 201.374987)"><g><path d="M 3.453125 0 L 3.453125 -30.296875 L 8.15625 -35 L 29.65625 -35 L 34.40625 -30.296875 L 34.40625 0 L 24.65625 0 L 24.65625 -8.84375 L 13.203125 -8.84375 L 13.203125 0 Z M 13.203125 -17.296875 L 24.65625 -17.296875 L 24.65625 -25.84375 L 23.90625 -26.546875 L 13.90625 -26.546875 L 13.203125 -25.84375 Z M 13.203125 -17.296875 "/></g></g></g><g fill="#ffffff" fill-opacity="1"><g transform="translate(242.88953, 201.374987)"><g><path d="M 10.75 0 L 10.75 -26.546875 L 1.046875 -26.546875 L 1.046875 -35 L 30.15625 -35 L 30.15625 -26.546875 L 20.5 -26.546875 L 20.5 0 Z M 10.75 0 "/></g></g></g><g fill="#ffffff" fill-opacity="1"><g transform="translate(274.13469, 201.374987)"><g><path d="M 7.59375 0 L 2.90625 -4.75 L 2.90625 -30.296875 L 7.59375 -35 L 29.09375 -35 L 33.796875 -30.296875 L 33.796875 -22.59375 L 24.046875 -22.59375 L 24.046875 -25.84375 L 23.34375 -26.546875 L 13.34375 -26.546875 L 12.65625 -25.84375 L 12.65625 -9.15625 L 13.34375 -8.453125 L 23.34375 -8.453125 L 24.046875 -9.15625 L 24.046875 -12.40625 L 33.796875 -12.40625 L 33.796875 -4.75 L 29.09375 0 Z M 7.59375 0 "/></g></g></g><g fill="#ffffff" fill-opacity="1"><g transform="translate(310.829024, 201.374987)"><g><path d="M 24.65625 0 L 24.65625 -13.296875 L 13.203125 -13.296875 L 13.203125 0 L 3.453125 0 L 3.453125 -35 L 13.203125 -35 L 13.203125 -21.703125 L 24.65625 -21.703125 L 24.65625 -35 L 34.40625 -35 L 34.40625 0 Z M 24.65625 0 "/></g></g></g></svg>