<svg xmlns="http://www.w3.org/2000/svg" xmlns:xlink="http://www.w3.org/1999/xlink" width="500" zoomAndPan="magnify" viewBox="0 0 375 374.999991" height="500" preserveAspectRatio="xMidYMid meet" version="1.0"><defs><g/><clipPath id="adec50a706"><path d="M 94.601562 69 L 280.601562 69 L 280.601562 305.949219 L 94.601562 305.949219 Z M 94.601562 69 " clip-rule="nonzero"/></clipPath><clipPath id="38955e0b98"><path d="M 95.78125 70.136719 L 279.53125 70.136719 L 279.53125 304.886719 L 95.78125 304.886719 Z M 95.78125 70.136719 " clip-rule="nonzero"/></clipPath><clipPath id="0c25072612"><rect x="0" width="105" y="0" height="56"/></clipPath></defs><g clip-path="url(#adec50a706)"><path fill="#00d1a1" d="M 185.378906 261.273438 L 185.378906 303.792969 C 185.378906 304.199219 185.277344 304.574219 185.066406 304.921875 C 184.859375 305.269531 184.578125 305.539062 184.222656 305.734375 C 183.863281 305.925781 183.484375 306.011719 183.078125 305.996094 C 182.671875 305.976562 182.300781 305.855469 181.960938 305.632812 L 102.964844 253.863281 C 101.679688 253.023438 100.519531 252.035156 99.480469 250.902344 C 98.441406 249.769531 97.554688 248.53125 96.824219 247.175781 C 96.097656 245.824219 95.542969 244.40625 95.164062 242.914062 C 94.789062 241.425781 94.601562 239.914062 94.601562 238.375 L 94.601562 136.617188 C 94.601562 135.082031 94.789062 133.570312 95.164062 132.082031 C 95.542969 130.589844 96.097656 129.171875 96.824219 127.820312 C 97.554688 126.46875 98.441406 125.226562 99.480469 124.09375 C 100.519531 122.964844 101.679688 121.976562 102.964844 121.136719 L 181.960938 69.359375 C 182.300781 69.136719 182.671875 69.019531 183.078125 69 C 183.484375 68.984375 183.863281 69.070312 184.222656 69.261719 C 184.578125 69.453125 184.859375 69.726562 185.066406 70.074219 C 185.277344 70.421875 185.378906 70.796875 185.378906 71.203125 L 185.378906 113.714844 C 175.957031 113.957031 166.828125 115.726562 157.992188 119.015625 C 146.679688 123.203125 140 135.660156 142.113281 148.628906 L 142.242188 149.410156 L 145.902344 159.882812 C 144.878906 160.890625 143.890625 161.9375 142.945312 163.015625 C 141.996094 164.097656 141.089844 165.210938 140.222656 166.355469 C 139.355469 167.503906 138.53125 168.679688 137.75 169.886719 C 136.96875 171.09375 136.234375 172.324219 135.542969 173.585938 C 134.851562 174.847656 134.207031 176.128906 133.609375 177.4375 C 133.011719 178.742188 132.460938 180.070312 131.960938 181.417969 C 131.457031 182.765625 131.007812 184.128906 130.605469 185.507812 C 130.203125 186.886719 129.851562 188.28125 129.550781 189.683594 C 129.25 191.089844 129 192.503906 128.804688 193.929688 C 128.605469 195.351562 128.460938 196.78125 128.367188 198.214844 C 128.273438 199.648438 128.230469 201.085938 128.242188 202.523438 C 128.253906 203.960938 128.316406 205.394531 128.429688 206.828125 C 128.546875 208.257812 128.714844 209.6875 128.933594 211.105469 C 129.152344 212.527344 129.421875 213.9375 129.746094 215.335938 C 130.066406 216.738281 130.4375 218.125 130.859375 219.5 C 131.285156 220.871094 131.757812 222.230469 132.277344 223.570312 C 132.800781 224.90625 133.367188 226.226562 133.984375 227.523438 C 134.601562 228.820312 135.265625 230.09375 135.976562 231.34375 C 136.6875 232.59375 137.441406 233.816406 138.242188 235.011719 C 139.039062 236.207031 139.882812 237.371094 140.765625 238.503906 C 141.648438 239.636719 142.574219 240.734375 143.539062 241.800781 C 144.5 242.867188 145.503906 243.898438 146.542969 244.890625 C 147.582031 245.882812 148.652344 246.835938 149.761719 247.753906 C 150.871094 248.667969 152.011719 249.542969 153.183594 250.375 C 154.355469 251.207031 155.554688 251.992188 156.785156 252.738281 C 158.011719 253.484375 159.269531 254.183594 160.546875 254.835938 C 161.828125 255.488281 163.128906 256.09375 164.453125 256.652344 C 165.777344 257.210938 167.121094 257.722656 168.484375 258.183594 C 169.84375 258.644531 171.21875 259.054688 172.613281 259.414062 C 174.003906 259.773438 175.40625 260.085938 176.820312 260.34375 C 178.234375 260.601562 179.652344 260.808594 181.082031 260.964844 C 182.511719 261.117188 183.945312 261.222656 185.378906 261.273438 Z M 210.566406 135.941406 C 203.804688 133.441406 196.820312 132.070312 189.613281 131.832031 C 189.152344 131.832031 188.691406 131.789062 188.230469 131.785156 C 187.28125 131.785156 186.335938 131.796875 185.394531 131.824219 C 178.136719 132.070312 171.101562 133.460938 164.296875 135.996094 C 161.402344 137.070312 159.519531 141.042969 159.914062 145.050781 L 161.273438 148.9375 C 165.03125 147.082031 168.945312 145.644531 173.011719 144.621094 C 177.078125 143.601562 181.203125 143.019531 185.394531 142.878906 C 186.097656 142.851562 186.800781 142.816406 187.507812 142.816406 C 188.21875 142.816406 188.921875 142.851562 189.628906 142.878906 C 193.859375 143.023438 198.027344 143.613281 202.128906 144.65625 C 206.230469 145.695312 210.175781 147.160156 213.964844 149.050781 C 214.433594 147.976562 214.785156 146.867188 215.015625 145.71875 C 215.691406 141.480469 213.703125 137.097656 210.566406 135.941406 Z M 272.023438 121.136719 L 193.027344 69.359375 C 192.6875 69.140625 192.316406 69.019531 191.914062 69.003906 C 191.507812 68.984375 191.128906 69.074219 190.773438 69.265625 C 190.417969 69.457031 190.132812 69.726562 189.925781 70.074219 C 189.71875 70.421875 189.613281 70.796875 189.613281 71.203125 L 189.613281 113.71875 C 198.972656 113.957031 208.042969 115.699219 216.824219 118.949219 C 228.242188 123.152344 234.996094 135.632812 232.878906 148.628906 C 232.195312 152.824219 230.460938 156.5625 229.023438 159.816406 C 230.050781 160.824219 231.039062 161.871094 231.988281 162.949219 C 232.9375 164.027344 233.847656 165.140625 234.714844 166.289062 C 235.585938 167.433594 236.410156 168.609375 237.195312 169.816406 C 237.976562 171.023438 238.714844 172.253906 239.410156 173.515625 C 240.101562 174.773438 240.75 176.058594 241.351562 177.367188 C 241.949219 178.671875 242.5 180 243.003906 181.347656 C 243.507812 182.695312 243.960938 184.058594 244.367188 185.4375 C 244.769531 186.816406 245.121094 188.210938 245.425781 189.617188 C 245.726562 191.023438 245.980469 192.4375 246.179688 193.863281 C 246.378906 195.285156 246.523438 196.714844 246.621094 198.152344 C 246.714844 199.585938 246.757812 201.023438 246.75 202.460938 C 246.738281 203.898438 246.679688 205.335938 246.5625 206.769531 C 246.449219 208.203125 246.285156 209.628906 246.066406 211.050781 C 245.847656 212.472656 245.578125 213.882812 245.257812 215.285156 C 244.9375 216.6875 244.566406 218.074219 244.144531 219.449219 C 243.722656 220.824219 243.25 222.183594 242.730469 223.523438 C 242.210938 224.863281 241.640625 226.183594 241.023438 227.484375 C 240.40625 228.78125 239.746094 230.058594 239.035156 231.308594 C 238.324219 232.558594 237.570312 233.78125 236.773438 234.976562 C 235.972656 236.175781 235.132812 237.339844 234.246094 238.472656 C 233.363281 239.609375 232.441406 240.710938 231.476562 241.777344 C 230.511719 242.84375 229.511719 243.875 228.472656 244.867188 C 227.433594 245.863281 226.359375 246.820312 225.25 247.734375 C 224.140625 248.652344 223.003906 249.527344 221.828125 250.359375 C 220.65625 251.191406 219.457031 251.980469 218.226562 252.726562 C 216.996094 253.472656 215.742188 254.171875 214.460938 254.828125 C 213.179688 255.480469 211.878906 256.085938 210.550781 256.644531 C 209.226562 257.207031 207.882812 257.714844 206.523438 258.175781 C 205.160156 258.640625 203.78125 259.050781 202.390625 259.410156 C 201 259.773438 199.59375 260.082031 198.179688 260.339844 C 196.765625 260.601562 195.34375 260.808594 193.914062 260.960938 C 192.484375 261.117188 191.050781 261.222656 189.613281 261.273438 L 189.613281 303.792969 C 189.613281 304.199219 189.714844 304.574219 189.925781 304.921875 C 190.132812 305.269531 190.414062 305.542969 190.769531 305.734375 C 191.125 305.925781 191.507812 306.011719 191.914062 305.996094 C 192.316406 305.976562 192.6875 305.859375 193.027344 305.632812 L 272.023438 253.863281 C 273.308594 253.023438 274.472656 252.035156 275.511719 250.902344 C 276.550781 249.773438 277.433594 248.53125 278.164062 247.179688 C 278.894531 245.828125 279.449219 244.40625 279.824219 242.914062 C 280.203125 241.425781 280.390625 239.914062 280.390625 238.375 L 280.390625 136.617188 C 280.390625 135.082031 280.203125 133.570312 279.824219 132.082031 C 279.449219 130.589844 278.894531 129.171875 278.164062 127.820312 C 277.433594 126.46875 276.550781 125.226562 275.511719 124.09375 C 274.472656 122.964844 273.308594 121.976562 272.023438 121.136719 Z M 272.023438 121.136719 " fill-opacity="1" fill-rule="nonzero"/></g><g clip-path="url(#38955e0b98)"><path fill="#ffffff" d="M 185.59375 260.40625 L 185.59375 302.472656 C 185.59375 302.875 185.492188 303.246094 185.285156 303.589844 C 185.078125 303.933594 184.800781 304.203125 184.445312 304.390625 C 184.09375 304.582031 183.714844 304.667969 183.316406 304.652344 C 182.914062 304.632812 182.546875 304.515625 182.210938 304.296875 L 104.058594 253.078125 C 102.785156 252.242188 101.636719 251.265625 100.609375 250.148438 C 99.582031 249.027344 98.707031 247.800781 97.984375 246.460938 C 97.261719 245.125 96.714844 243.71875 96.339844 242.246094 C 95.96875 240.769531 95.78125 239.273438 95.78125 237.753906 L 95.78125 137.082031 C 95.78125 135.5625 95.96875 134.066406 96.339844 132.589844 C 96.714844 131.117188 97.261719 129.710938 97.984375 128.375 C 98.707031 127.039062 99.582031 125.8125 100.609375 124.691406 C 101.636719 123.570312 102.785156 122.597656 104.058594 121.761719 L 182.210938 70.539062 C 182.546875 70.320312 182.914062 70.199219 183.316406 70.183594 C 183.714844 70.167969 184.09375 70.253906 184.445312 70.441406 C 184.800781 70.632812 185.078125 70.902344 185.285156 71.246094 C 185.492188 71.589844 185.59375 71.960938 185.59375 72.363281 L 185.59375 114.421875 C 176.269531 114.660156 167.238281 116.410156 158.5 119.667969 C 147.304688 123.808594 140.695312 136.132812 142.789062 148.960938 L 142.917969 149.738281 L 146.535156 160.097656 C 144.507812 162.09375 142.632812 164.230469 140.917969 166.503906 C 139.199219 168.773438 137.65625 171.15625 136.285156 173.652344 C 134.917969 176.152344 133.734375 178.734375 132.742188 181.402344 C 131.75 184.070312 130.953125 186.796875 130.359375 189.582031 C 129.765625 192.367188 129.375 195.179688 129.1875 198.019531 C 129 200.863281 129.023438 203.703125 129.25 206.539062 C 129.480469 209.378906 129.914062 212.1875 130.550781 214.960938 C 131.1875 217.734375 132.023438 220.449219 133.058594 223.105469 C 134.089844 225.757812 135.308594 228.320312 136.71875 230.796875 C 138.125 233.273438 139.703125 235.632812 141.453125 237.878906 C 143.207031 240.125 145.109375 242.230469 147.167969 244.199219 C 149.226562 246.167969 151.417969 247.976562 153.738281 249.625 C 156.058594 251.273438 158.488281 252.742188 161.027344 254.039062 C 163.5625 255.332031 166.179688 256.4375 168.875 257.347656 C 171.574219 258.261719 174.324219 258.972656 177.125 259.484375 C 179.925781 260 182.746094 260.304688 185.59375 260.40625 Z M 210.511719 136.410156 C 203.820312 133.9375 196.910156 132.582031 189.78125 132.347656 C 189.328125 132.347656 188.871094 132.304688 188.414062 132.300781 C 187.476562 132.300781 186.539062 132.3125 185.605469 132.335938 C 178.425781 132.578125 171.46875 133.957031 164.734375 136.464844 C 161.871094 137.527344 160.007812 141.457031 160.398438 145.421875 L 161.742188 149.269531 C 165.460938 147.433594 169.332031 146.007812 173.355469 145 C 177.378906 143.988281 181.460938 143.414062 185.605469 143.273438 C 186.304688 143.246094 186.996094 143.210938 187.699219 143.210938 C 188.402344 143.210938 189.097656 143.246094 189.796875 143.273438 C 193.980469 143.417969 198.105469 144.003906 202.164062 145.03125 C 206.222656 146.0625 210.125 147.511719 213.875 149.382812 C 214.335938 148.320312 214.683594 147.21875 214.914062 146.082031 C 215.582031 141.890625 213.613281 137.554688 210.511719 136.410156 Z M 271.3125 121.761719 L 193.160156 70.539062 C 192.824219 70.320312 192.457031 70.203125 192.054688 70.1875 C 191.65625 70.167969 191.28125 70.257812 190.929688 70.445312 C 190.574219 70.636719 190.296875 70.902344 190.089844 71.246094 C 189.886719 71.589844 189.78125 71.960938 189.78125 72.363281 L 189.78125 114.425781 C 199.042969 114.660156 208.015625 116.386719 216.703125 119.597656 C 227.996094 123.757812 234.679688 136.105469 232.585938 148.960938 C 231.90625 153.113281 230.195312 156.8125 228.773438 160.035156 C 230.804688 162.03125 232.683594 164.164062 234.402344 166.433594 C 236.125 168.703125 237.671875 171.085938 239.046875 173.585938 C 240.421875 176.082031 241.605469 178.664062 242.605469 181.332031 C 243.601562 184 244.398438 186.730469 245 189.515625 C 245.597656 192.300781 245.992188 195.113281 246.179688 197.957031 C 246.371094 200.800781 246.351562 203.640625 246.125 206.484375 C 245.898438 209.324219 245.46875 212.132812 244.832031 214.910156 C 244.199219 217.6875 243.363281 220.402344 242.332031 223.058594 C 241.300781 225.714844 240.082031 228.28125 238.675781 230.761719 C 237.269531 233.238281 235.691406 235.601562 233.941406 237.851562 C 232.1875 240.097656 230.285156 242.207031 228.226562 244.175781 C 226.167969 246.148438 223.976562 247.957031 221.65625 249.609375 C 219.332031 251.257812 216.902344 252.734375 214.363281 254.027344 C 211.828125 255.324219 209.207031 256.429688 206.511719 257.34375 C 203.8125 258.257812 201.058594 258.972656 198.257812 259.484375 C 195.453125 259.996094 192.628906 260.304688 189.78125 260.40625 L 189.78125 302.472656 C 189.78125 302.875 189.882812 303.246094 190.089844 303.589844 C 190.292969 303.933594 190.574219 304.203125 190.925781 304.394531 C 191.277344 304.582031 191.65625 304.671875 192.054688 304.652344 C 192.457031 304.636719 192.824219 304.515625 193.160156 304.296875 L 271.3125 253.078125 C 272.585938 252.242188 273.734375 251.265625 274.761719 250.148438 C 275.792969 249.027344 276.667969 247.800781 277.390625 246.460938 C 278.113281 245.125 278.660156 243.71875 279.03125 242.246094 C 279.402344 240.769531 279.589844 239.273438 279.589844 237.753906 L 279.589844 137.082031 C 279.589844 135.5625 279.402344 134.066406 279.03125 132.589844 C 278.660156 131.117188 278.113281 129.710938 277.390625 128.375 C 276.667969 127.039062 275.792969 125.808594 274.761719 124.691406 C 273.734375 123.570312 272.585938 122.597656 271.3125 121.761719 Z M 271.3125 121.761719 " fill-opacity="1" fill-rule="nonzero"/></g><g transform="matrix(1, 0, 0, 1, 135, 178)"><g clip-path="url(#0c25072612)"><g fill="#a0aec0" fill-opacity="1"><g transform="translate(0.999517, 43.710569)"><g><path d="M 29.625 0 L 25.84375 -3.78125 L 22.046875 0 L 9.71875 0 L 3.90625 -5.828125 L 3.90625 -39.578125 L 14.921875 -39.578125 L 14.921875 -10.859375 L 16.234375 -9.5625 L 19 -9.5625 L 20.296875 -10.859375 L 20.296875 -39.578125 L 31.328125 -39.578125 L 31.328125 -10.859375 L 32.625 -9.5625 L 35.453125 -9.5625 L 36.75 -10.859375 L 36.75 -39.578125 L 47.78125 -39.578125 L 47.78125 -5.828125 L 41.953125 0 Z M 29.625 0 "/></g></g></g><g fill="#a0aec0" fill-opacity="1"><g transform="translate(52.673089, 43.710569)"><g><path d="M 20.296875 0 L 20.296875 -29.234375 L 19.515625 -30.03125 L 15.71875 -30.03125 L 14.921875 -29.234375 L 14.921875 0 L 3.90625 0 L 3.90625 -34.265625 L 9.21875 -39.578125 L 22.5625 -39.578125 L 25.84375 -36.296875 L 29.125 -39.578125 L 42.40625 -39.578125 L 47.78125 -34.265625 L 47.78125 0 L 36.75 0 L 36.75 -29.234375 L 35.96875 -30.03125 L 32.171875 -30.03125 L 31.328125 -29.234375 L 31.328125 0 Z M 20.296875 0 "/></g></g></g></g></g></svg>