<svg xmlns="http://www.w3.org/2000/svg" xmlns:xlink="http://www.w3.org/1999/xlink" width="500" zoomAndPan="magnify" viewBox="0 0 375 374.999991" height="500" preserveAspectRatio="xMidYMid meet" version="1.0"><defs><g/><clipPath id="747e54f92e"><path d="M 124.984375 78.125 L 249.484375 78.125 L 249.484375 237.125 L 124.984375 237.125 Z M 124.984375 78.125 " clip-rule="nonzero"/></clipPath><clipPath id="ca3416d29d"><path d="M 125.777344 78.921875 L 249.527344 78.921875 L 249.527344 236.421875 L 125.777344 236.421875 Z M 125.777344 78.921875 " clip-rule="nonzero"/></clipPath><clipPath id="ad409dbb45"><rect x="0" width="71" y="0" height="38"/></clipPath><clipPath id="40d6d5f8bd"><rect x="0" width="277" y="0" height="44"/></clipPath></defs><g clip-path="url(#747e54f92e)"><path fill="#00d1a1" d="M 185.949219 207.277344 L 185.949219 235.832031 C 185.949219 236.101562 185.878906 236.355469 185.742188 236.589844 C 185.601562 236.824219 185.410156 237.003906 185.171875 237.132812 C 184.933594 237.261719 184.675781 237.320312 184.40625 237.308594 C 184.132812 237.296875 183.882812 237.21875 183.65625 237.070312 L 130.605469 202.300781 C 129.742188 201.734375 128.960938 201.074219 128.261719 200.3125 C 127.566406 199.550781 126.972656 198.71875 126.480469 197.8125 C 125.988281 196.902344 125.617188 195.949219 125.367188 194.949219 C 125.113281 193.949219 124.984375 192.933594 124.984375 191.898438 L 124.984375 123.5625 C 124.984375 122.53125 125.113281 121.515625 125.367188 120.515625 C 125.617188 119.515625 125.988281 118.5625 126.480469 117.652344 C 126.972656 116.746094 127.566406 115.914062 128.261719 115.152344 C 128.960938 114.394531 129.742188 113.730469 130.605469 113.164062 L 183.65625 78.394531 C 183.882812 78.246094 184.132812 78.164062 184.40625 78.152344 C 184.675781 78.140625 184.933594 78.199219 185.171875 78.328125 C 185.410156 78.457031 185.601562 78.640625 185.742188 78.875 C 185.878906 79.105469 185.949219 79.359375 185.949219 79.632812 L 185.949219 108.179688 C 179.621094 108.34375 173.492188 109.53125 167.558594 111.742188 C 159.960938 114.554688 155.472656 122.917969 156.894531 131.628906 L 156.980469 132.15625 L 159.4375 139.1875 C 158.0625 140.542969 156.789062 141.992188 155.625 143.535156 C 154.457031 145.074219 153.410156 146.695312 152.480469 148.390625 C 151.550781 150.082031 150.75 151.835938 150.074219 153.648438 C 149.402344 155.460938 148.863281 157.3125 148.457031 159.199219 C 148.054688 161.089844 147.789062 163 147.664062 164.929688 C 147.535156 166.859375 147.550781 168.785156 147.707031 170.710938 C 147.859375 172.640625 148.15625 174.542969 148.585938 176.429688 C 149.019531 178.3125 149.585938 180.15625 150.289062 181.957031 C 150.988281 183.757812 151.816406 185.496094 152.773438 187.179688 C 153.726562 188.859375 154.800781 190.460938 155.988281 191.984375 C 157.175781 193.507812 158.46875 194.9375 159.867188 196.273438 C 161.265625 197.609375 162.75 198.835938 164.328125 199.957031 C 165.902344 201.074219 167.550781 202.074219 169.273438 202.953125 C 170.996094 203.832031 172.773438 204.582031 174.601562 205.199219 C 176.433594 205.820312 178.300781 206.304688 180.199219 206.652344 C 182.101562 207 184.019531 207.207031 185.949219 207.277344 Z M 202.863281 123.109375 C 198.324219 121.429688 193.632812 120.507812 188.792969 120.347656 C 188.484375 120.347656 188.175781 120.320312 187.867188 120.316406 C 187.226562 120.316406 186.59375 120.324219 185.960938 120.34375 C 181.085938 120.507812 176.363281 121.441406 171.789062 123.144531 C 169.847656 123.867188 168.582031 126.53125 168.847656 129.226562 L 169.761719 131.835938 C 174.867188 129.316406 180.269531 127.957031 185.960938 127.765625 C 186.433594 127.75 186.902344 127.722656 187.378906 127.722656 C 187.855469 127.722656 188.328125 127.75 188.804688 127.765625 C 194.550781 127.960938 200 129.34375 205.148438 131.914062 C 205.460938 131.191406 205.695312 130.445312 205.851562 129.671875 C 206.308594 126.828125 204.972656 123.886719 202.863281 123.109375 Z M 244.136719 113.164062 L 191.085938 78.394531 C 190.859375 78.246094 190.609375 78.167969 190.335938 78.15625 C 190.066406 78.144531 189.8125 78.203125 189.570312 78.332031 C 189.332031 78.460938 189.144531 78.640625 189.003906 78.875 C 188.863281 79.109375 188.792969 79.359375 188.792969 79.632812 L 188.792969 108.183594 C 195.078125 108.34375 201.171875 109.515625 207.070312 111.695312 C 214.734375 114.519531 219.269531 122.902344 217.851562 131.628906 C 217.390625 134.445312 216.226562 136.957031 215.261719 139.144531 C 216.640625 140.5 217.914062 141.945312 219.082031 143.488281 C 220.25 145.027344 221.300781 146.648438 222.234375 148.339844 C 223.167969 150.035156 223.972656 151.789062 224.648438 153.601562 C 225.324219 155.414062 225.867188 157.265625 226.273438 159.15625 C 226.679688 161.046875 226.949219 162.957031 227.078125 164.886719 C 227.207031 166.816406 227.191406 168.746094 227.039062 170.671875 C 226.886719 172.601562 226.59375 174.507812 226.164062 176.394531 C 225.730469 178.277344 225.164062 180.121094 224.464844 181.925781 C 223.765625 183.730469 222.9375 185.472656 221.984375 187.152344 C 221.027344 188.835938 219.957031 190.441406 218.769531 191.964844 C 217.578125 193.492188 216.285156 194.921875 214.890625 196.261719 C 213.492188 197.597656 212.003906 198.828125 210.429688 199.945312 C 208.851562 201.066406 207.203125 202.066406 205.480469 202.945312 C 203.757812 203.828125 201.980469 204.578125 200.148438 205.199219 C 198.316406 205.820312 196.449219 206.304688 194.546875 206.652344 C 192.644531 207 190.726562 207.207031 188.792969 207.277344 L 188.792969 235.832031 C 188.792969 236.101562 188.863281 236.355469 189 236.589844 C 189.140625 236.824219 189.332031 237.003906 189.570312 237.136719 C 189.808594 237.265625 190.066406 237.324219 190.335938 237.3125 C 190.609375 237.300781 190.859375 237.21875 191.085938 237.070312 L 244.136719 202.300781 C 245 201.734375 245.78125 201.074219 246.480469 200.3125 C 247.175781 199.554688 247.769531 198.71875 248.261719 197.8125 C 248.75 196.902344 249.125 195.949219 249.375 194.949219 C 249.628906 193.949219 249.753906 192.933594 249.753906 191.898438 L 249.753906 123.5625 C 249.753906 122.53125 249.628906 121.515625 249.375 120.515625 C 249.125 119.515625 248.75 118.5625 248.261719 117.652344 C 247.769531 116.746094 247.175781 115.914062 246.480469 115.152344 C 245.78125 114.394531 245 113.730469 244.136719 113.164062 Z M 244.136719 113.164062 " fill-opacity="1" fill-rule="nonzero"/></g><g clip-path="url(#ca3416d29d)"><path fill="#ffffff" d="M 186.089844 206.699219 L 186.089844 234.949219 C 186.089844 235.214844 186.019531 235.46875 185.882812 235.699219 C 185.746094 235.929688 185.558594 236.109375 185.320312 236.238281 C 185.082031 236.363281 184.832031 236.421875 184.5625 236.410156 C 184.292969 236.398438 184.046875 236.320312 183.820312 236.171875 L 131.335938 201.777344 C 130.484375 201.21875 129.710938 200.5625 129.019531 199.808594 C 128.332031 199.058594 127.742188 198.230469 127.257812 197.335938 C 126.773438 196.4375 126.40625 195.492188 126.15625 194.503906 C 125.902344 193.511719 125.777344 192.507812 125.777344 191.488281 L 125.777344 123.882812 C 125.777344 122.859375 125.902344 121.855469 126.15625 120.867188 C 126.40625 119.878906 126.773438 118.933594 127.257812 118.035156 C 127.742188 117.136719 128.332031 116.3125 129.019531 115.5625 C 129.710938 114.808594 130.484375 114.15625 131.335938 113.59375 L 183.820312 79.195312 C 184.046875 79.050781 184.292969 78.96875 184.5625 78.957031 C 184.832031 78.945312 185.082031 79.003906 185.320312 79.132812 C 185.558594 79.257812 185.746094 79.4375 185.882812 79.671875 C 186.019531 79.902344 186.089844 80.152344 186.089844 80.421875 L 186.089844 108.664062 C 179.828125 108.824219 173.765625 110 167.894531 112.1875 C 160.378906 114.96875 155.941406 123.246094 157.347656 131.859375 L 157.429688 132.378906 L 159.863281 139.335938 C 158.5 140.679688 157.242188 142.113281 156.089844 143.640625 C 154.9375 145.164062 153.898438 146.765625 152.980469 148.441406 C 152.058594 150.117188 151.265625 151.851562 150.597656 153.644531 C 149.933594 155.4375 149.398438 157.269531 149 159.136719 C 148.597656 161.007812 148.335938 162.898438 148.210938 164.804688 C 148.085938 166.710938 148.101562 168.621094 148.253906 170.527344 C 148.410156 172.433594 148.699219 174.316406 149.128906 176.179688 C 149.554688 178.042969 150.117188 179.867188 150.8125 181.648438 C 151.503906 183.429688 152.324219 185.152344 153.269531 186.816406 C 154.214844 188.476562 155.273438 190.0625 156.449219 191.570312 C 157.625 193.078125 158.90625 194.492188 160.289062 195.816406 C 161.667969 197.136719 163.140625 198.351562 164.699219 199.457031 C 166.257812 200.5625 167.890625 201.550781 169.59375 202.421875 C 171.296875 203.289062 173.054688 204.03125 174.863281 204.644531 C 176.675781 205.257812 178.523438 205.738281 180.402344 206.082031 C 182.285156 206.425781 184.179688 206.628906 186.089844 206.699219 Z M 202.824219 123.429688 C 198.332031 121.769531 193.691406 120.859375 188.902344 120.703125 C 188.597656 120.703125 188.292969 120.675781 187.984375 120.671875 C 187.355469 120.671875 186.726562 120.679688 186.101562 120.695312 C 181.277344 120.859375 176.605469 121.78125 172.082031 123.46875 C 170.160156 124.179688 168.910156 126.820312 169.171875 129.480469 L 170.074219 132.066406 C 175.128906 129.570312 180.46875 128.230469 186.101562 128.039062 C 186.566406 128.023438 187.035156 127.996094 187.503906 127.996094 C 187.976562 127.996094 188.445312 128.023438 188.914062 128.039062 C 194.601562 128.234375 199.988281 129.601562 205.082031 132.140625 C 205.394531 131.429688 205.625 130.691406 205.78125 129.925781 C 206.230469 127.109375 204.90625 124.199219 202.824219 123.429688 Z M 243.65625 113.59375 L 191.171875 79.195312 C 190.945312 79.050781 190.699219 78.972656 190.429688 78.960938 C 190.164062 78.949219 189.910156 79.007812 189.671875 79.132812 C 189.4375 79.261719 189.25 79.441406 189.109375 79.671875 C 188.972656 79.902344 188.902344 80.152344 188.902344 80.421875 L 188.902344 108.667969 C 195.121094 108.824219 201.148438 109.984375 206.984375 112.140625 C 214.566406 114.933594 219.054688 123.226562 217.648438 131.859375 C 217.191406 134.648438 216.042969 137.128906 215.085938 139.292969 C 216.453125 140.636719 217.710938 142.066406 218.867188 143.59375 C 220.023438 145.117188 221.0625 146.71875 221.988281 148.394531 C 222.910156 150.070312 223.707031 151.804688 224.375 153.597656 C 225.042969 155.390625 225.582031 157.222656 225.984375 159.09375 C 226.386719 160.960938 226.648438 162.851562 226.777344 164.761719 C 226.902344 166.671875 226.890625 168.578125 226.738281 170.488281 C 226.589844 172.394531 226.300781 174.28125 225.871094 176.144531 C 225.445312 178.011719 224.886719 179.835938 224.191406 181.621094 C 223.5 183.402344 222.679688 185.125 221.738281 186.789062 C 220.792969 188.457031 219.734375 190.042969 218.558594 191.550781 C 217.382812 193.0625 216.101562 194.476562 214.71875 195.800781 C 213.335938 197.125 211.867188 198.339844 210.308594 199.449219 C 208.746094 200.554688 207.117188 201.546875 205.410156 202.414062 C 203.707031 203.285156 201.949219 204.027344 200.136719 204.640625 C 198.324219 205.257812 196.476562 205.734375 194.59375 206.078125 C 192.714844 206.425781 190.816406 206.628906 188.902344 206.699219 L 188.902344 234.949219 C 188.902344 235.214844 188.972656 235.46875 189.109375 235.699219 C 189.246094 235.929688 189.433594 236.109375 189.671875 236.238281 C 189.910156 236.363281 190.160156 236.421875 190.429688 236.410156 C 190.699219 236.398438 190.945312 236.320312 191.171875 236.171875 L 243.65625 201.777344 C 244.507812 201.21875 245.28125 200.5625 245.972656 199.808594 C 246.660156 199.058594 247.25 198.234375 247.734375 197.335938 C 248.21875 196.4375 248.585938 195.492188 248.835938 194.503906 C 249.085938 193.511719 249.210938 192.507812 249.210938 191.488281 L 249.210938 123.882812 C 249.210938 122.859375 249.085938 121.855469 248.835938 120.867188 C 248.585938 119.875 248.21875 118.933594 247.734375 118.035156 C 247.25 117.136719 246.660156 116.3125 245.972656 115.5625 C 245.28125 114.808594 244.507812 114.152344 243.65625 113.59375 Z M 243.65625 113.59375 " fill-opacity="1" fill-rule="nonzero"/></g><g transform="matrix(1, 0, 0, 1, 152, 151)"><g clip-path="url(#ad409dbb45)"><g fill="#a0aec0" fill-opacity="1"><g transform="translate(0.787211, 29.711144)"><g><path d="M 19.890625 0 L 17.359375 -2.546875 L 14.8125 0 L 6.53125 0 L 2.625 -3.90625 L 2.625 -26.578125 L 10.03125 -26.578125 L 10.03125 -7.296875 L 10.890625 -6.421875 L 12.75 -6.421875 L 13.625 -7.296875 L 13.625 -26.578125 L 21.03125 -26.578125 L 21.03125 -7.296875 L 21.90625 -6.421875 L 23.8125 -6.421875 L 24.671875 -7.296875 L 24.671875 -26.578125 L 32.078125 -26.578125 L 32.078125 -3.90625 L 28.171875 0 Z M 19.890625 0 "/></g></g></g><g fill="#a0aec0" fill-opacity="1"><g transform="translate(35.488336, 29.711144)"><g><path d="M 13.625 0 L 13.625 -19.625 L 13.09375 -20.15625 L 10.5625 -20.15625 L 10.03125 -19.625 L 10.03125 0 L 2.625 0 L 2.625 -23.015625 L 6.1875 -26.578125 L 15.15625 -26.578125 L 17.359375 -24.375 L 19.546875 -26.578125 L 28.46875 -26.578125 L 32.078125 -23.015625 L 32.078125 0 L 24.671875 0 L 24.671875 -19.625 L 24.140625 -20.15625 L 21.609375 -20.15625 L 21.03125 -19.625 L 21.03125 0 Z M 13.625 0 "/></g></g></g></g></g><g transform="matrix(1, 0, 0, 1, 49, 250)"><g clip-path="url(#40d6d5f8bd)"><g fill="#ffffff" fill-opacity="1"><g transform="translate(0.617324, 34.138309)"><g><path d="M 22.421875 0 L 19.546875 -2.859375 L 16.6875 0 L 7.359375 0 L 2.953125 -4.40625 L 2.953125 -29.953125 L 11.296875 -29.953125 L 11.296875 -8.21875 L 12.28125 -7.234375 L 14.375 -7.234375 L 15.359375 -8.21875 L 15.359375 -29.953125 L 23.703125 -29.953125 L 23.703125 -8.21875 L 24.6875 -7.234375 L 26.828125 -7.234375 L 27.8125 -8.21875 L 27.8125 -29.953125 L 36.15625 -29.953125 L 36.15625 -4.40625 L 31.75 0 Z M 22.421875 0 "/></g></g></g><g fill="#ffffff" fill-opacity="1"><g transform="translate(39.715467, 34.138309)"><g><path d="M 6.5 0 L 2.484375 -4.0625 L 2.484375 -25.921875 L 6.5 -29.953125 L 24.90625 -29.953125 L 28.921875 -25.921875 L 28.921875 -4.0625 L 24.90625 0 Z M 10.828125 -7.828125 L 11.421875 -7.234375 L 19.984375 -7.234375 L 20.578125 -7.828125 L 20.578125 -22.125 L 19.984375 -22.71875 L 11.421875 -22.71875 L 10.828125 -22.125 Z M 10.828125 -7.828125 "/></g></g></g><g fill="#ffffff" fill-opacity="1"><g transform="translate(71.113756, 34.138309)"><g><path d="M 2.953125 0 L 2.953125 -29.953125 L 24 -29.953125 L 30.15625 -23.78125 L 30.15625 -6.203125 L 24 0 Z M 11.296875 -7.234375 L 19.8125 -7.234375 L 21.8125 -9.234375 L 21.8125 -20.75 L 19.8125 -22.71875 L 11.296875 -22.71875 Z M 11.296875 -7.234375 "/></g></g></g><g fill="#ffffff" fill-opacity="1"><g transform="translate(103.367586, 34.138309)"><g/></g></g><g fill="#ffffff" fill-opacity="1"><g transform="translate(114.446815, 34.138309)"><g><path d="M 15.359375 0 L 15.359375 -22.125 L 14.765625 -22.71875 L 11.890625 -22.71875 L 11.296875 -22.125 L 11.296875 0 L 2.953125 0 L 2.953125 -25.921875 L 6.96875 -29.953125 L 17.0625 -29.953125 L 19.546875 -27.46875 L 22.03125 -29.953125 L 32.09375 -29.953125 L 36.15625 -25.921875 L 36.15625 0 L 27.8125 0 L 27.8125 -22.125 L 27.203125 -22.71875 L 24.34375 -22.71875 L 23.703125 -22.125 L 23.703125 0 Z M 15.359375 0 "/></g></g></g><g fill="#ffffff" fill-opacity="1"><g transform="translate(153.544958, 34.138309)"><g><path d="M 2.953125 0 L 2.953125 -25.921875 L 6.96875 -29.953125 L 25.375 -29.953125 L 29.4375 -25.921875 L 29.4375 0 L 21.09375 0 L 21.09375 -7.578125 L 11.296875 -7.578125 L 11.296875 0 Z M 11.296875 -14.796875 L 21.09375 -14.796875 L 21.09375 -22.125 L 20.453125 -22.71875 L 11.890625 -22.71875 L 11.296875 -22.125 Z M 11.296875 -14.796875 "/></g></g></g><g fill="#ffffff" fill-opacity="1"><g transform="translate(185.884339, 34.138309)"><g><path d="M 9.203125 0 L 9.203125 -22.71875 L 0.890625 -22.71875 L 0.890625 -29.953125 L 25.796875 -29.953125 L 25.796875 -22.71875 L 17.546875 -22.71875 L 17.546875 0 Z M 9.203125 0 "/></g></g></g><g fill="#ffffff" fill-opacity="1"><g transform="translate(212.619942, 34.138309)"><g><path d="M 6.5 0 L 2.484375 -4.0625 L 2.484375 -25.921875 L 6.5 -29.953125 L 24.90625 -29.953125 L 28.921875 -25.921875 L 28.921875 -19.34375 L 20.578125 -19.34375 L 20.578125 -22.125 L 19.984375 -22.71875 L 11.421875 -22.71875 L 10.828125 -22.125 L 10.828125 -7.828125 L 11.421875 -7.234375 L 19.984375 -7.234375 L 20.578125 -7.828125 L 20.578125 -10.609375 L 28.921875 -10.609375 L 28.921875 -4.0625 L 24.90625 0 Z M 6.5 0 "/></g></g></g><g fill="#ffffff" fill-opacity="1"><g transform="translate(244.018244, 34.138309)"><g><path d="M 21.09375 0 L 21.09375 -11.375 L 11.296875 -11.375 L 11.296875 0 L 2.953125 0 L 2.953125 -29.953125 L 11.296875 -29.953125 L 11.296875 -18.5625 L 21.09375 -18.5625 L 21.09375 -29.953125 L 29.4375 -29.953125 L 29.4375 0 Z M 21.09375 0 "/></g></g></g></g></g></svg>